# xmcd
#
# Track frame offsets: 
#        150
#        14922
#        30357
#        48745
#        64432
#        81687
#        95315
#        108457
#        122192
#        138415
#        153185
#
# Disc length: 2245 seconds
#
# Revision: 3
# Processed by: cddbd v1.5.2PL0 Copyright (c) Steve Scherf et al.
# Submitted via: ExactAudioCopy v0.95b4
#
DISCID=9c08c30b
DTITLE=Chris LeDoux - Used To Want To Be A Cowboy
DYEAR=1900
DGENRE=Country
TTITLE0=(I Used To Want To Be A) Cowboy
TTITLE1=The Lights Of Amarillo
TTITLE2=This Cowboy's Hat
TTITLE3=Hobo Dreams
TTITLE4=The Last Cowboy In Town
TTITLE5=You Bring Out The Beast In Me
TTITLE6=He's A Tryer
TTITLE7=Desperado
TTITLE8=Even Cowgirls Get The Blues
TTITLE9=Busted
TTITLE10=Red Headed Stranger
EXTD=
EXTT0=
EXTT1=
EXTT2=
EXTT3=
EXTT4=
EXTT5=
EXTT6=
EXTT7=
EXTT8=
EXTT9=
EXTT10=
PLAYORDER=
